<?xml version="1.0" standalone="no"?>
<!DOCTYPE svg PUBLIC "-//W3C//DTD SVG 20010904//EN"
 "http://www.w3.org/TR/2001/REC-SVG-20010904/DTD/svg10.dtd">
<svg version="1.0" xmlns="http://www.w3.org/2000/svg"
 width="324.000000pt" height="324.000000pt" viewBox="0 0 324.000000 324.000000"
 preserveAspectRatio="xMidYMid meet">
<metadata>
Created by potrace 1.14, written by Peter Selinger 2001-2017
</metadata>
<g transform="translate(0.000000,324.000000) scale(0.100000,-0.100000)"
fill="#000000" stroke="none">
<path d="M1504 2696 c-31 -14 -68 -44 -95 -75 -44 -51 -44 -51 -104 -51 -149
0 -275 -127 -277 -278 -2 -140 78 -249 210 -288 l52 -15 0 -130 c0 -72 4 -139
10 -149 17 -31 67 -40 235 -40 119 0 166 3 180 13 39 29 7 37 -148 37 -84 0
-169 3 -189 6 -35 6 -38 9 -38 40 l0 34 286 0 285 0 -3 -37 -3 -38 -68 -3
c-50 -2 -70 -7 -74 -18 -3 -9 0 -20 8 -25 19 -12 102 -11 135 1 49 19 53 35
54 177 l0 133 28 5 c229 48 316 324 155 490 -52 53 -125 85 -198 85 -58 1 -61
2 -87 40 -29 42 -81 79 -137 98 -59 20 -160 15 -217 -12z m233 -45 c44 -22 99
-79 115 -120 5 -14 13 -46 17 -71 5 -36 10 -45 26 -45 18 0 20 6 17 58 -3 54
-2 57 20 57 77 0 173 -56 213 -125 112 -190 -73 -417 -287 -353 -29 8 -42 8
-50 0 -18 -18 7 -40 55 -49 l42 -9 3 -72 3 -72 -55 0 -55 0 -3 43 c-2 34 -7
42 -23 42 -16 0 -21 -8 -23 -42 l-3 -43 -54 0 -54 0 -3 43 c-2 29 -8 42 -18
42 -10 0 -16 -13 -18 -42 l-3 -43 -54 0 -54 0 -3 43 c-2 34 -7 42 -23 42 -16
0 -21 -8 -23 -42 l-3 -43 -50 0 -49 0 0 69 0 70 55 16 c44 12 55 20 55 36 0
18 -4 20 -27 15 -16 -4 -56 -9 -90 -13 -55 -5 -69 -2 -117 21 -164 80 -192
277 -57 399 38 34 119 67 166 67 21 0 22 -5 21 -57 -1 -77 22 -81 39 -7 23
102 77 165 174 201 47 17 127 10 178 -16z"/>
<path d="M1141 1740 c-25 -15 -3 -38 75 -82 110 -62 118 -70 110 -102 -4 -15
-12 -29 -20 -32 -7 -3 -57 20 -110 51 -53 31 -105 55 -114 53 -38 -7 -12 -36
82 -90 54 -31 103 -61 107 -65 5 -5 -2 -22 -15 -38 l-23 -29 -102 58 c-97 55
-131 63 -131 33 0 -14 207 -137 232 -137 8 0 27 9 41 20 l26 21 93 -54 c90
-51 93 -54 96 -92 6 -70 51 -97 114 -69 35 16 39 16 73 -1 31 -14 41 -15 66
-4 37 15 53 43 45 80 -5 26 -1 31 35 49 44 23 60 47 38 60 -9 6 -32 -2 -67
-21 -51 -30 -54 -30 -78 -14 l-26 17 28 17 c16 10 76 44 132 76 57 32 106 65
109 74 17 57 35 80 75 100 126 61 210 -21 122 -118 -44 -50 -91 -67 -138 -51
-31 10 -39 8 -74 -14 -48 -30 -58 -44 -43 -59 8 -8 21 -6 48 8 26 13 55 18 89
16 80 -4 148 38 188 116 49 97 -24 185 -140 169 -78 -10 -150 -63 -161 -118
-4 -23 -28 -40 -145 -108 l-139 -81 -133 76 -132 75 4 35 c5 45 -5 57 -92 107
-39 22 -85 49 -101 59 -19 11 -36 15 -44 9z m443 -511 c-3 -5 -11 -9 -18 -9
-16 0 -38 24 -30 33 9 8 54 -14 48 -24z"/>
<path d="M545 886 c-118 -51 -137 -286 -24 -286 32 0 43 16 53 73 8 45 21 47
44 6 34 -63 52 -79 86 -79 17 0 36 4 42 10 6 6 20 6 40 -2 40 -15 82 -3 96 27
12 26 38 34 38 12 0 -23 35 -47 67 -47 30 0 63 26 63 48 0 7 9 12 19 12 14 0
21 -8 23 -27 5 -48 31 -38 53 19 11 29 24 52 29 50 6 -1 9 -25 7 -52 -2 -43 0
-50 16 -50 12 0 24 16 38 52 27 71 43 73 41 6 -1 -51 0 -53 27 -56 16 -2 34 2
42 8 9 7 15 8 20 0 9 -14 58 -13 73 2 9 9 15 9 24 0 20 -20 92 -15 122 9 14
11 26 27 26 35 0 19 -7 18 -37 -6 -25 -19 -83 -28 -83 -12 1 4 15 16 33 27 51
32 46 95 -7 95 -37 0 -65 -28 -72 -70 -8 -47 -30 -72 -45 -49 -4 8 -7 21 -4
29 2 8 7 32 11 53 5 30 3 37 -10 37 -18 0 -36 -38 -36 -74 0 -22 -27 -56 -44
-56 -5 0 -5 29 -1 65 6 61 5 65 -14 65 -21 0 -44 -19 -69 -56 -11 -17 -12 -15
-7 13 11 56 -41 56 -77 0 l-20 -32 7 38 c5 30 3 37 -10 37 -9 0 -21 -13 -26
-30 -13 -36 -36 -39 -49 -5 -17 45 -87 45 -116 -1 -18 -26 -44 -32 -44 -11 0
21 -34 47 -62 47 -31 0 -67 -38 -70 -74 -3 -32 -29 -59 -50 -51 -8 3 -22 20
-33 38 -10 18 -25 36 -32 40 -10 6 -6 14 19 31 38 25 54 62 44 99 -12 50 -95
72 -161 43z m103 -38 c29 -29 7 -84 -41 -101 -16 -6 -18 -2 -15 36 3 36 0 42
-17 42 -14 0 -21 -10 -27 -39 -5 -21 -16 -44 -25 -51 -11 -8 -13 -14 -5 -19
15 -9 15 -56 2 -76 -17 -25 -40 16 -40 73 0 55 22 111 54 132 25 18 97 20 114
3z m200 -200 c-11 -24 -35 -23 -48 1 -10 20 -5 45 13 69 15 19 47 -46 35 -70z
m159 45 c10 -31 9 -41 -2 -52 -22 -22 -45 -6 -45 32 0 29 14 57 30 57 3 0 10
-17 17 -37z m519 25 c4 -6 -3 -20 -17 -31 -22 -17 -24 -18 -27 -3 -4 18 14 46
29 46 4 0 11 -5 15 -12z"/>
<path d="M1796 890 c-65 -21 -106 -89 -106 -178 0 -72 25 -112 70 -112 35 0
46 14 55 68 8 50 20 53 43 11 34 -61 52 -79 83 -79 17 0 40 5 51 11 14 8 23 8
31 0 14 -14 82 -14 109 0 14 8 23 8 31 0 14 -14 73 -14 100 0 16 9 22 9 25 0
2 -6 13 -11 24 -11 17 0 19 -4 12 -27 -15 -53 -11 -125 9 -137 26 -16 53 20
68 92 7 31 16 61 20 66 5 5 27 9 49 8 23 -1 51 3 62 9 14 8 23 8 31 0 6 -6 31
-11 56 -11 39 0 49 5 82 41 36 39 38 40 48 20 15 -27 14 -29 -11 -33 -13 -2
-23 -10 -23 -18 0 -11 11 -15 43 -13 46 2 89 24 99 49 10 26 -6 28 -32 4 -23
-22 -25 -22 -25 -4 0 10 -9 30 -20 44 -12 17 -17 34 -13 52 9 45 -21 25 -56
-37 -32 -57 -55 -75 -94 -75 -38 0 -40 13 -5 30 39 18 58 61 38 84 -32 40
-110 -5 -110 -63 0 -20 -7 -34 -21 -41 -28 -15 -33 -7 -21 30 20 57 -18 108
-61 81 -16 -10 -21 -10 -27 0 -17 26 -40 1 -40 -44 0 -30 -6 -49 -18 -60 -31
-28 -35 -20 -28 49 6 60 5 65 -11 62 -12 -2 -21 -18 -28 -49 -13 -58 -31 -81
-63 -77 -34 4 -49 30 -36 65 10 30 41 39 36 11 -4 -22 24 -24 32 -2 14 37 -25
65 -69 48 -19 -8 -45 -55 -45 -83 0 -23 -28 -41 -64 -41 -34 0 -32 11 7 35 34
22 46 57 27 81 -32 38 -110 -8 -110 -65 0 -31 -30 -58 -50 -46 -15 9 -70 95
-61 95 5 0 20 12 35 26 33 33 36 92 6 119 -22 20 -92 28 -134 15z m98 -51 c22
-32 -7 -89 -46 -89 -16 0 -17 5 -12 40 5 31 3 40 -8 40 -22 0 -38 -22 -38 -52
0 -16 -7 -31 -15 -34 -17 -7 -21 -34 -5 -34 6 0 8 -12 4 -27 -12 -58 -14 -60
-35 -34 -35 43 -19 142 32 190 32 29 102 29 123 0z m192 -121 c4 -6 -3 -20
-17 -31 -22 -17 -24 -18 -27 -3 -4 18 14 46 29 46 4 0 11 -5 15 -12z m378 -3
c9 -25 -23 -85 -46 -85 -11 0 -10 57 2 81 13 23 36 25 44 4z m161 5 c7 -12
-33 -53 -45 -45 -13 8 10 55 26 55 7 0 15 -4 19 -10z m-260 -207 c-3 -23 -10
-45 -15 -48 -18 -11 -19 31 -3 89 15 52 19 57 21 32 2 -17 1 -49 -3 -73z"/>
<path d="M1376 823 c-4 -9 -2 -21 3 -26 15 -15 46 -3 49 21 3 18 -1 22 -21 22
-14 0 -28 -7 -31 -17z"/>
<path d="M2302 827 c-15 -17 1 -40 24 -35 27 5 32 48 6 48 -11 0 -24 -6 -30
-13z"/>
</g>
</svg>
